<svg width="100%" height="100%" overflow="visible" style="display: block;" viewBox="0 0 288.26 289.055" fill="none" xmlns="http://www.w3.org/2000/svg">
<g id="Group 573">
<path id="Vector 55" d="M7.33595 231.73L71.2019 255.895L88.0314 177.357L30.6384 129.89L71.2019 87.5999L81.127 26.7546L108.745 116.944L183.399 124.711L152.329 38.4059L244.244 15.1034L281.787 52.6462L236.045 195.05L244.244 280.061C233.168 266.108 210.153 238.203 206.701 238.203C203.249 238.203 159.233 257.478 137.657 267.115L123.848 195.05L177.789 177.357" stroke="var(--stroke-0, #D6F1CA)" stroke-opacity="0.4" stroke-width="0.863053" stroke-dasharray="6.9 6.9"/>
<circle id="Ellipse 36" cx="80.2639" cy="31.0699" r="12.0827" fill="var(--fill-0, #D6F1CA)"/>
<circle id="Ellipse 52" cx="176.063" cy="175.2" r="12.0827" fill="var(--fill-0, #D6F1CA)"/>
<circle id="Ellipse 37" cx="12.0827" cy="230.435" r="12.0827" fill="var(--fill-0, #D6F1CA)"/>
<circle id="Ellipse 38" cx="241.75" cy="276.972" r="12.0827" fill="var(--fill-0, #D6F1CA)"/>
<circle id="Ellipse 47" cx="241.655" cy="12.0827" r="12.0827" fill="var(--fill-0, #D6F1CA)"/>
<circle id="Ellipse 39" cx="71.6334" cy="254.601" r="6.90443" fill="var(--fill-0, #697564)"/>
<circle id="Ellipse 48" cx="109.322" cy="114.501" r="6.90443" fill="var(--fill-0, #697564)"/>
<circle id="Ellipse 40" cx="206.27" cy="237.34" r="6.90443" fill="var(--fill-0, #697564)"/>
<circle id="Ellipse 50" cx="137.225" cy="264.957" r="6.90443" fill="var(--fill-0, #697564)"/>
<circle id="Ellipse 51" cx="123.417" cy="194.187" r="6.90443" fill="var(--fill-0, #697564)"/>
<circle id="Ellipse 44" cx="69.0443" cy="86.3053" r="6.90443" fill="var(--fill-0, #697564)"/>
<circle id="Ellipse 41" cx="155.35" cy="37.9743" r="6.90443" fill="var(--fill-0, #697564)"/>
<circle id="Ellipse 45" cx="281.355" cy="51.7832" r="6.90443" fill="var(--fill-0, #697564)"/>
<circle id="Ellipse 42" cx="85.4423" cy="176.063" r="6.90443" fill="var(--fill-0, #697564)"/>
<circle id="Ellipse 49" cx="182.682" cy="122.268" r="6.90443" fill="var(--fill-0, #697564)"/>
<circle id="Ellipse 43" cx="236.477" cy="194.187" r="6.90443" fill="var(--fill-0, #697564)"/>
<circle id="Ellipse 46" cx="31.0699" cy="128.595" r="6.90443" fill="var(--fill-0, #697564)"/>
</g>
</svg>
